# xmcd
#
# Track frame offsets: 
#        150
#        450
#        7780
#        13591
#        22418
#        28583
#        35984
#        44585
#        52558
#        61930
#        70933
#        78027
#        87095
#        94463
#        103453
#        112231
#        121209
#        129634
#        136775
#        144260
#        151837
#        159837
#        160137
#        163849
#        167228
#        170546
#        174651
#        179619
#        184529
#        187948
#        192356
#        195566
#        199451
#        203579
#        208127
#        212289
#        216285
#        219896
#        224034
#        228732
#        232570
#        237470
#        240369
#
# Disc length: 3262 seconds
#
# Revision: 1
# Processed by: cddbd v1.5.2PL0 Copyright (c) Steve Scherf et al.
# Submitted via: ExactAudioCopy v1.0b3
#
DISCID=590cbc2b
DTITLE=モーリス・ジャケ 久松健一 - 仏検準一級・二級必須単語集
DYEAR=2015
DGENRE=
TTITLE0=01 niveau 2
TTITLE1=02 Le plasir de lire 1
TTITLE2=03 Le plasir de lire 2
TTITLE3=04 L'etat du monde
TTITLE4=05 Hotesse de l'air
TTITLE5=06 Le pachinko
TTITLE6=07 Le passe simple
TTITLE7=08 Pour un voyage agreable
TTITLE8=09 Vendredi 23 juin, 17h00
TTITLE9=10 Hygiene 1
TTITLE10=11  Hygiene 2
TTITLE11=12 Logement
TTITLE12=13 Un steak hache, s'il vous plait!
TTITLE13=14 Histore d'eau
TTITLE14=15 Un enfant ou un animal?
TTITLE15=16 Tous les francais parlent-ils francais?
TTITLE16=17 Reclamation
TTITLE17=18 Le conte
TTITLE18=19 Le peur du nucleaire
TTITLE19=20 Les statistiques
TTITLE20=21 Le jour le plus long
TTITLE21=22 niveau 1bis
TTITLE22=23 Cogito, ergo sum
TTITLE23=24 La maison du japon
TTITLE24=25 Probleme du poids?
TTITLE25=26 La parc de la Villette
TTITLE26=27 TGB
TTITLE27=28 La Provence
TTITLE28=29 Trois couleurs
TTITLE29=30 Decontracte?
TTITLE30=31 La mode verte
TTITLE31=32 Le deuxieme sexe...ou le premier?
TTITLE32=33 Maniere de dire...
TTITLE33=34 Lumiere
TTITLE34=35 Un, deux, trois
TTITLE35=36 Toxicomane
TTITLE36=37 Crise de foi
TTITLE37=38 Made in france
TTITLE38=39 Superstitieux, moi?
TTITLE39=40 Jeune travailleur
TTITLE40=41 Un Ricard sinon rien!
TTITLE41=42 Vocabulissi...mots
TTITLE42=43 Message
EXTD=
EXTT0=
EXTT1=
EXTT2=
EXTT3=
EXTT4=
EXTT5=
EXTT6=
EXTT7=
EXTT8=
EXTT9=
EXTT10=
EXTT11=
EXTT12=
EXTT13=
EXTT14=
EXTT15=
EXTT16=
EXTT17=
EXTT18=
EXTT19=
EXTT20=
EXTT21=
EXTT22=
EXTT23=
EXTT24=
EXTT25=
EXTT26=
EXTT27=
EXTT28=
EXTT29=
EXTT30=
EXTT31=
EXTT32=
EXTT33=
EXTT34=
EXTT35=
EXTT36=
EXTT37=
EXTT38=
EXTT39=
EXTT40=
EXTT41=
EXTT42=
PLAYORDER=
